PathFileType	4	(X/Y/Z)	D:\TRACE\spotREDO_2-26-24\spot_Both_Motion_1_1-v60.trc
DataRate	CameraRate	NumFrames	NumMarkers	Units	OrigDataRate	OrigDataStartFrame	OrigNumFrames
100.00	100.00	      24	9	mm	100.00	6126	      7000
Frame#	Time	front left toe			Front right toe			aft left toe			aft right toe			Arm			FL body			FR body			AL Body			AR Body			
		X1	Y1	Z1	X2	Y2	Z2	X3	Y3	Z3	X4	Y4	Z4	X5	Y5	Z5	X6	Y6	Z6	X7	Y7	Z7	X8	Y8	Z8	X9	Y9	Z9	

6126	61.250	-320.80594	34.70564	-485.07574	-8.66590	34.65559	-398.77200	-480.83517	15.25702	66.13938	-127.83210	13.38740	177.33640	-104.71031	753.99371	-775.21307	-234.46355	599.06207	-553.70941	-81.19974	603.72589	-523.82410	-410.02631	562.44965	312.28482	-271.43820	567.07007	341.07550	
6127	61.260	-321.54428	34.56137	-484.67776	-9.56418	34.96687	-399.31375	-481.09082	15.53874	66.45670	-128.04843	13.31612	177.30159	-103.51408	754.57153	-774.83789	-237.10318	600.20935	-552.97021	-83.06667	605.05286	-523.78101	-409.24393	561.83252	313.58588	-270.19254	566.31598	342.16833	
6128	61.270	-322.40997	34.62136	-484.32278	-10.48629	35.09501	-399.40701	-481.34827	15.53727	66.80965	-128.52307	13.16219	177.28133	-101.81477	754.47125	-774.36957	-239.52725	601.36066	-552.05884	-85.37012	606.17535	-522.99475	-408.37573	560.86584	315.03159	-269.03323	565.60504	343.23529	
6129	61.280	-322.88922	34.44699	-484.07010	-11.19468	35.37978	-399.54919	-481.46768	15.34668	67.29770	-128.97815	13.07136	177.30157	-99.37253	753.65179	-774.01617	-241.30035	602.30756	-550.97278	-87.02848	606.91449	-522.62555	-408.31555	560.33313	316.29648	-268.79510	565.08789	344.14685	
6130	61.290	-323.51324	34.51585	-483.88123	-11.44308	35.70075	-399.36612	-482.04306	15.53723	67.41161	-129.43642	12.74576	177.16475	-97.36690	752.43671	-773.59436	-242.55583	603.07819	-550.23267	-87.87878	607.77045	-521.58929	-408.48242	560.27173	317.50888	-268.67804	564.80737	345.36911	
6131	61.300	-323.96786	34.76283	-483.81464	-11.68880	35.72928	-399.22906	-482.61990	15.65402	67.42768	-130.00032	12.91003	177.61826	-95.69529	750.95563	-773.34857	-243.09987	603.68811	-549.29797	-88.41525	608.20190	-520.77588	-409.27896	560.23334	318.25974	-269.76990	564.74335	345.98254	
6132	61.310	-324.14957	35.22916	-483.89774	-11.69053	35.75616	-398.67667	-483.30533	15.68725	67.31097	-130.45741	12.99401	177.88933	-95.26120	749.86920	-773.32104	-242.90714	604.07617	-548.23163	-88.48220	608.59381	-519.60455	-410.24918	560.28607	318.96338	-270.76538	564.67743	346.78506	
6133	61.320	-324.20828	35.57611	-483.93030	-11.80083	35.51996	-398.42978	-483.68399	15.52808	67.26378	-131.15236	13.10550	178.18736	-95.28733	748.41321	-773.31506	-242.47289	604.33862	-547.88763	-87.78056	608.47968	-518.29822	-411.91879	560.30951	319.49329	-272.65909	564.66321	347.69748	
6134	61.330	-324.27243	36.10215	-484.22653	-12.00677	35.09240	-398.13998	-484.35748	15.29889	67.11866	-131.83536	13.04882	178.30209	-96.36372	747.68274	-773.56165	-241.10844	604.22205	-546.47626	-86.98256	608.26251	-516.85712	-413.66595	560.53583	319.84381	-274.56070	564.56342	348.39041	
6135	61.340	-324.39893	36.56059	-484.29715	-12.06407	35.08607	-397.52295	-485.22253	15.20545	66.92927	-132.51149	13.21128	178.34380	-97.68545	747.03394	-773.70154	-240.00748	604.26019	-545.66711	-86.25066	608.14087	-515.67657	-415.25555	560.37836	320.24289	-276.37549	564.59460	349.19211	
6136	61.350	-324.22815	36.81228	-484.46454	-12.33596	34.95493	-397.12244	-485.53345	14.94181	66.81882	-133.13594	13.27925	178.45097	-99.56853	746.71405	-773.61407	-238.77893	604.20337	-544.81232	-85.11662	607.99835	-514.18451	-416.92575	560.46936	320.46127	-278.18979	564.55487	349.88461	
6137	61.360	-324.39111	37.14582	-484.44559	-12.42764	34.99434	-396.66315	-485.77939	14.86737	66.78996	-133.58467	13.47515	178.65273	-101.24782	746.65649	-773.71692	-237.80853	604.03308	-543.82782	-85.27011	607.92706	-513.34808	-418.21216	560.53436	320.87885	-279.59506	564.58636	350.74469	
6138	61.370	-324.45639	37.24920	-484.46487	-12.86287	34.73932	-396.66449	-485.94901	14.67612	66.79721	-133.83572	13.48245	178.83817	-103.33548	746.95691	-773.63989	-237.31410	603.90900	-543.21564	-83.82657	607.47125	-511.60577	-419.05530	560.28552	321.53885	-280.39807	564.34839	351.46228	
6139	61.380	-324.55853	37.27188	-484.37497	-13.24639	34.72626	-396.79349	-486.00418	14.56565	66.89697	-133.85332	13.46952	178.93112	-105.13657	747.37311	-773.59729	-236.91011	603.55566	-541.95416	-83.65175	607.39807	-510.80011	-419.53680	560.15271	322.15375	-281.59647	564.32501	352.48053	
6140	61.390	-325.02438	37.43948	-483.98651	-13.67054	34.96692	-396.98825	-486.07162	14.54037	66.99614	-134.05869	13.23824	179.02596	-106.18063	747.80084	-773.52197	-237.17439	603.55597	-541.05841	-83.84496	607.44049	-509.87689	-419.38477	559.86963	323.39517	-281.01910	563.95715	353.37167	
6141	61.400	-325.26166	37.46803	-483.82443	-13.57883	35.28227	-396.88965	-486.14893	14.73326	67.19675	-133.98573	13.06180	179.03503	-106.98805	748.04504	-773.12341	-237.79482	603.59564	-540.01941	-84.30437	607.51782	-509.22116	-419.09079	559.52612	324.24484	-280.41028	563.52191	354.46457	
6142	61.410	-325.66217	37.46978	-483.72476	-13.80893	35.79969	-396.84543	-486.37280	14.97528	67.34005	-133.90381	12.89640	179.09576	-107.38534	748.66162	-772.60510	-238.82216	604.00311	-539.12238	-85.87246	608.32465	-508.78363	-418.33127	559.13177	325.72937	-279.62335	563.20331	355.32132	
6143	61.420	-325.78302	37.41055	-483.54755	-14.11634	35.90746	-397.01065	-486.23633	15.05888	67.56551	-133.75258	12.53910	179.27226	-107.43601	749.16058	-772.43805	-239.56912	603.87640	-537.92725	-86.97443	608.29364	-507.82465	-417.50656	558.50562	327.14307	-278.92621	562.82635	356.73483	
6144	61.430	-325.90793	37.34503	-483.46915	-14.22440	36.03272	-397.09460	-486.05960	15.15836	67.85475	-133.74605	12.31734	179.29228	-107.38264	749.36615	-772.19391	-240.62639	603.79303	-537.02643	-87.67963	608.47742	-507.08826	-416.79895	558.01678	328.44150	-278.07117	562.36145	357.67407	
6145	61.440	-326.07892	37.34892	-483.37094	-14.15031	36.35414	-396.94733	-486.04102	15.23450	68.05150	-133.51955	12.08713	179.24683	-106.96291	749.43835	-771.53931	-241.52596	604.28839	-535.93652	-88.28299	608.82111	-506.08661	-415.90775	557.49084	329.89597	-277.18365	561.73431	358.76880	
6146	61.450	-326.39569	37.45016	-483.28027	-14.35733	36.39780	-397.13400	-486.10315	15.27839	68.15732	-133.49440	12.00717	179.27931	-106.72217	749.49097	-771.07465	-242.41100	604.78986	-535.41058	-89.04024	609.05798	-505.04221	-415.34012	556.90210	331.30551	-276.41962	561.22400	359.89716	
6147	61.460	-326.41364	37.50948	-483.25092	-14.45653	36.28949	-397.25806	-486.07581	15.39258	68.20901	-133.28156	12.06765	179.48534	-106.47699	749.38104	-770.63031	-242.52815	604.88141	-533.74896	-89.42159	609.28784	-504.47461	-415.12283	556.72144	332.23792	-275.81421	560.87646	361.10681	
6148	61.470	-326.35010	37.47348	-483.23178	-14.45666	36.43661	-397.15445	-486.22208	15.34324	68.34029	-133.19543	12.18118	179.59676	-106.43366	749.11316	-770.34454	-242.66736	604.93573	-532.44055	-89.70438	609.39502	-503.17120	-414.85757	556.37018	333.56494	-275.73801	560.45844	362.01852	
6149	61.480	-326.20016	37.41529	-483.16254	-14.36391	36.38259	-397.05328	-486.29669	15.33587	68.34586	-133.41934	12.17472	179.70517	-106.52309	748.86584	-770.19983	-242.66748	605.50702	-531.64813	-89.39499	609.62897	-502.03787	-414.88651	555.92871	334.76199	-275.86450	560.14093	363.37146	
